<?xml version="1.0" standalone="no"?>
<!DOCTYPE svg PUBLIC "-//W3C//DTD SVG 20010904//EN"
 "http://www.w3.org/TR/2001/REC-SVG-20010904/DTD/svg10.dtd">
<svg version="1.0" xmlns="http://www.w3.org/2000/svg"
 width="389.000000pt" height="330.000000pt" viewBox="0 0 389.000000 330.000000"
 preserveAspectRatio="xMidYMid meet">

<g transform="translate(0.000000,330.000000) scale(0.100000,-0.100000)"
fill="#000000" stroke="none">
<path d="M1675 2915 c-105 -19 -152 -31 -260 -67 -98 -32 -263 -111 -281 -133
-6 -8 -13 -13 -15 -10 -7 7 -119 -80 -183 -143 -145 -139 -221 -286 -245 -472
-11 -88 -6 -157 20 -259 27 -107 136 -300 160 -285 5 3 6 -2 3 -10 -7 -19 12
-22 20 -3 3 6 4 3 1 -9 -5 -21 2 -29 119 -131 70 -61 222 -147 336 -191 287
-109 569 -133 880 -76 238 44 479 163 645 318 l60 57 -70 -49 c-140 -98 -290
-162 -475 -204 -91 -20 -132 -23 -305 -23 -217 0 -323 15 -491 71 -265 88
-464 249 -565 457 -50 104 -62 168 -57 297 4 85 10 118 33 175 137 340 524
562 1017 582 318 13 585 -59 831 -223 l82 -54 -60 55 c-161 150 -387 261 -643
316 -130 27 -440 35 -557 14z"/>
<path d="M1703 2665 c-150 -27 -279 -81 -390 -164 -34 -25 -61 -47 -60 -48 1
0 45 20 97 45 110 54 187 76 320 93 218 26 464 -31 637 -149 69 -47 159 -141
188 -198 l21 -39 92 -3 c51 -1 92 0 92 4 0 24 -74 137 -127 194 -100 108 -210
178 -358 228 -146 50 -357 65 -512 37z"/>
<path d="M3000 2431 c0 -11 4 -22 8 -25 14 -9 35 12 29 28 -9 23 -37 20 -37
-3z"/>
<path d="M3058 2309 c-38 -22 -5 -79 36 -63 21 8 21 60 0 68 -19 7 -15 8 -36
-5z"/>
<path d="M3102 2198 c-20 -20 -14 -58 11 -67 41 -16 77 22 57 60 -12 21 -50
25 -68 7z"/>
<path d="M1371 2063 c-34 -71 -74 -138 -89 -150 l-27 -23 60 1 c51 0 56 2 38
11 -27 13 -28 26 -8 74 l14 35 68 -3 c67 -3 68 -4 85 -38 23 -47 22 -59 -4
-70 -17 -6 -3 -9 52 -9 71 -1 73 0 52 15 -13 9 -53 76 -89 150 -36 74 -71 134
-77 134 -7 0 -40 -57 -75 -127z m89 17 l30 -60 -61 0 c-58 0 -60 1 -53 23 9
29 43 97 49 97 3 0 18 -27 35 -60z"/>
<path d="M1833 2169 c32 -24 34 -39 8 -70 l-19 -24 -26 24 c-30 28 -33 56 -8
70 23 14 -3 14 -29 1 -26 -14 -24 -58 4 -88 21 -24 21 -25 3 -36 -81 -48 -98
-97 -50 -135 36 -29 98 -27 151 3 l41 24 24 -25 c19 -21 30 -24 62 -20 21 3
42 9 47 14 5 5 -5 7 -25 5 -27 -3 -37 1 -54 23 -20 25 -20 28 -5 53 26 41 56
73 78 82 13 6 -1 9 -45 9 -49 0 -59 -3 -42 -9 26 -11 29 -40 5 -68 -18 -21
-18 -21 -69 27 l-51 47 23 23 c37 35 30 62 -21 80 l-30 11 28 -21z m-13 -136
c30 -20 80 -73 80 -85 0 -14 -58 -38 -93 -38 -65 0 -92 67 -47 116 28 29 29
29 60 7z"/>
<path d="M2120 2177 c25 -12 25 -14 25 -137 0 -123 0 -125 -25 -137 -22 -11
-16 -13 55 -12 77 0 79 0 52 15 -26 14 -28 19 -25 72 l3 57 37 3 c54 5 75 -11
93 -69 21 -72 29 -79 89 -79 l51 1 -31 13 c-22 10 -36 26 -48 57 -9 24 -29 54
-43 65 l-26 22 24 7 c67 20 81 82 27 115 -18 11 -46 20 -63 19 -30 0 -30 0 -5
-10 30 -12 40 -26 40 -60 0 -39 -29 -59 -91 -62 l-54 -2 -3 55 c-3 43 1 57 14
67 15 11 7 13 -52 13 -62 0 -67 -2 -44 -13z"/>
<path d="M2482 1763 c-75 -110 -191 -202 -322 -256 -263 -108 -596 -95 -840
34 -73 38 -74 38 -40 9 92 -80 253 -153 406 -185 104 -21 305 -21 409 0 249
52 455 189 562 374 18 31 33 62 33 69 0 9 -24 12 -85 12 l-84 0 -39 -57z"/>
<path d="M537 894 c-18 -19 -6 -60 23 -77 17 -10 30 -25 30 -33 0 -17 -37 -19
-43 -1 -2 6 -8 9 -12 5 -4 -4 -5 -14 -1 -23 4 -12 16 -15 43 -13 33 3 38 7 41
30 3 23 -3 32 -32 49 -20 12 -36 25 -36 30 0 15 33 24 38 11 6 -19 34 -14 30
6 -2 11 -14 18 -38 20 -20 2 -39 0 -43 -4z"/>
<path d="M654 887 c-3 -8 -4 -41 -2 -73 l3 -59 40 0 40 0 0 70 0 70 -38 3
c-25 2 -39 -1 -43 -11z m56 -63 c0 -47 -3 -55 -17 -52 -13 2 -19 15 -21 42 -4
47 3 66 23 66 12 0 15 -12 15 -56z"/>
<path d="M770 825 l0 -75 45 0 c25 0 45 5 45 10 0 6 -16 10 -35 10 l-35 0 0
65 c0 37 -4 65 -10 65 -6 0 -10 -32 -10 -75z"/>
<path d="M892 828 l3 -73 40 0 40 0 3 73 c2 59 0 72 -13 72 -12 0 -15 -13 -15
-65 0 -58 -2 -65 -20 -65 -18 0 -20 7 -20 65 0 38 -4 65 -10 65 -7 0 -10 -27
-8 -72z"/>
<path d="M1014 886 c-3 -7 -4 -40 -2 -72 l3 -59 38 -3 c27 -2 39 1 43 13 8 21
-3 32 -18 17 -7 -7 -20 -12 -30 -12 -15 0 -18 9 -18 50 0 38 4 52 17 57 9 4
19 1 21 -5 4 -13 32 -17 32 -4 0 29 -76 45 -86 18z"/>
<path d="M1130 825 c0 -43 4 -75 10 -75 6 0 10 32 10 75 0 43 -4 75 -10 75 -6
0 -10 -32 -10 -75z"/>
<path d="M1192 888 c-16 -16 -16 -110 0 -126 18 -18 75 -15 82 4 10 27 6 110
-6 122 -15 15 -61 15 -76 0z m58 -63 c0 -48 -2 -55 -20 -55 -17 0 -20 7 -20
48 0 51 5 62 27 62 9 0 13 -16 13 -55z"/>
<path d="M1310 825 c0 -77 16 -105 22 -37 l3 37 20 -37 c31 -61 45 -49 45 37
0 60 -3 75 -15 75 -11 0 -15 -11 -15 -37 l-1 -38 -20 38 c-11 20 -24 37 -29
37 -6 0 -10 -33 -10 -75z"/>
<path d="M1430 825 l0 -75 40 0 c22 0 40 5 40 10 0 6 -14 10 -31 10 -26 0 -30
3 -27 23 2 16 9 21 26 20 14 -2 22 3 22 12 0 9 -10 15 -25 15 -18 0 -25 5 -25
20 0 16 7 20 30 20 17 0 30 5 30 10 0 6 -18 10 -40 10 l-40 0 0 -75z"/>
<path d="M1557 893 c-4 -3 -7 -19 -7 -34 0 -21 7 -32 30 -44 17 -9 30 -22 30
-30 0 -18 -37 -20 -43 -2 -2 6 -8 9 -12 5 -4 -4 -5 -14 -2 -23 9 -21 73 -20
81 1 11 30 6 42 -29 63 -19 11 -35 25 -35 31 0 15 33 26 38 12 4 -13 32 -17
32 -4 0 25 -64 44 -83 25z"/>
<path d="M1720 825 l0 -75 45 0 c25 0 45 5 45 10 0 6 -13 10 -30 10 -23 0 -30
5 -30 19 0 13 8 21 23 23 12 2 22 8 22 13 0 6 -10 11 -22 13 -15 2 -23 10 -23
23 0 14 7 19 30 19 17 0 30 5 30 10 0 6 -20 10 -45 10 l-45 0 0 -75z"/>
<path d="M1840 825 c0 -62 3 -75 16 -75 13 0 15 8 12 40 -2 22 0 40 4 40 5 0
8 -3 8 -7 0 -5 5 -15 10 -23 9 -13 13 -11 30 10 l20 25 0 -42 c0 -24 5 -43 10
-43 6 0 10 32 10 75 0 61 -3 75 -15 75 -9 0 -22 -15 -30 -32 l-14 -33 -11 33
c-8 21 -19 32 -31 32 -17 0 -19 -8 -19 -75z"/>
<path d="M1990 826 c0 -61 3 -76 15 -76 9 0 15 9 15 24 0 18 7 25 31 30 29 5
30 8 27 48 -3 43 -3 43 -45 46 l-43 3 0 -75z m68 26 c3 -17 -2 -22 -17 -22
-16 0 -21 6 -21 26 0 33 33 30 38 -4z"/>
<path d="M2120 826 c0 -44 4 -76 10 -76 6 0 10 11 10 25 0 14 5 25 10 25 6 0
16 -11 22 -25 6 -14 18 -25 25 -25 9 0 11 5 6 13 -4 6 -8 39 -8 72 l0 60 -37
3 -38 3 0 -75z m58 26 c3 -17 -2 -22 -17 -22 -16 0 -21 6 -21 26 0 33 33 30
38 -4z"/>
<path d="M2240 825 l0 -75 46 0 c27 0 43 4 39 10 -3 6 -19 10 -36 10 -22 0
-29 5 -29 19 0 12 8 21 22 23 32 5 35 28 4 28 -19 0 -26 5 -26 20 0 16 7 20
35 20 19 0 35 5 35 10 0 6 -20 10 -45 10 l-45 0 0 -75z"/>
<path d="M2367 893 c-4 -3 -7 -19 -7 -34 0 -21 7 -32 30 -44 17 -9 30 -22 30
-30 0 -18 -37 -20 -43 -2 -2 6 -8 9 -12 5 -4 -4 -5 -14 -2 -23 9 -21 73 -20
81 1 11 30 6 42 -29 64 -19 12 -35 26 -35 31 0 15 33 24 38 11 5 -17 32 -15
32 2 0 22 -65 37 -83 19z"/>
<path d="M2481 837 c-14 -78 -14 -87 -1 -87 6 0 10 7 10 15 0 21 27 19 39 -2
18 -33 22 -6 10 66 -10 56 -15 71 -29 71 -14 0 -20 -14 -29 -63z m39 -17 c0
-11 -4 -20 -10 -20 -5 0 -10 9 -10 20 0 11 5 20 10 20 6 0 10 -9 10 -20z"/>
<path d="M2580 826 c0 -44 4 -76 10 -76 6 0 10 11 10 25 0 15 6 25 14 25 8 0
17 -11 20 -25 4 -14 13 -25 21 -25 18 0 18 5 4 31 -7 15 -7 24 1 34 6 8 10 29
8 47 -3 31 -5 33 -45 36 l-43 3 0 -75z m60 29 c0 -18 -5 -25 -20 -25 -20 0
-28 28 -13 43 15 16 33 6 33 -18z"/>
<path d="M2700 825 c0 -60 3 -75 15 -75 12 0 15 15 15 75 0 60 -3 75 -15 75
-12 0 -15 -15 -15 -75z"/>
<path d="M2761 829 c-13 -70 -8 -100 10 -66 12 21 39 23 39 2 0 -8 5 -15 10
-15 13 0 13 24 -1 93 -9 43 -16 57 -29 57 -13 0 -20 -16 -29 -71z m35 -26
c-11 -11 -19 6 -11 24 8 17 8 17 12 0 3 -10 2 -21 -1 -24z"/>
<path d="M2860 825 l0 -75 46 0 c27 0 43 4 39 10 -3 6 -19 10 -36 10 l-29 0 0
65 c0 37 -4 65 -10 65 -6 0 -10 -32 -10 -75z"/>
<path d="M2980 825 l0 -75 40 0 c22 0 40 5 40 10 0 6 -13 10 -30 10 -23 0 -30
5 -30 19 0 12 8 21 22 23 32 5 35 28 4 28 -19 0 -26 5 -26 20 0 16 7 20 30 20
17 0 30 5 30 10 0 6 -18 10 -40 10 l-40 0 0 -75z"/>
<path d="M3107 893 c-4 -3 -7 -19 -7 -34 0 -21 7 -32 30 -44 17 -9 30 -22 30
-30 0 -18 -37 -20 -42 -3 -2 6 -9 8 -16 4 -21 -13 -1 -36 32 -36 63 0 76 47
21 79 -19 11 -35 25 -35 31 0 15 33 26 38 12 5 -17 32 -15 32 2 0 22 -65 37
-83 19z"/>
<path d="M3270 895 c0 -3 7 -22 15 -42 8 -19 15 -51 15 -69 0 -24 5 -34 15
-34 10 0 15 10 15 34 0 18 7 50 15 69 18 43 18 47 5 47 -6 0 -16 -12 -22 -26
l-12 -25 -13 25 c-12 23 -33 36 -33 21z"/>
<path d="M985 648 c-5 -15 -25 -127 -25 -140 0 -4 5 -8 10 -8 6 0 10 6 10 14
0 27 22 29 41 5 17 -22 19 -22 19 -5 0 52 -23 146 -36 146 -8 0 -17 -6 -19
-12z m25 -68 c0 -11 -4 -20 -10 -20 -5 0 -10 9 -10 20 0 11 5 20 10 20 6 0 10
-9 10 -20z"/>
<path d="M1065 627 c-4 -18 -5 -53 -3 -77 3 -43 5 -45 36 -48 49 -5 62 11 62
77 0 65 -11 81 -57 81 -28 0 -33 -4 -38 -33z m63 -45 c3 -47 1 -52 -17 -52
-19 0 -21 6 -21 56 0 47 3 55 18 52 13 -2 18 -15 20 -56z"/>
<path d="M1190 580 c0 -86 17 -111 22 -32 3 46 4 46 16 20 6 -16 14 -28 16
-28 3 0 12 12 20 28 l15 27 1 -42 c0 -23 5 -45 10 -48 6 -4 10 23 10 74 0 63
-3 81 -14 81 -8 0 -19 -15 -26 -32 l-12 -33 -16 33 c-28 57 -42 41 -42 -48z"/>
<path d="M1336 596 c-6 -64 -1 -96 15 -96 5 0 9 36 9 80 0 44 -4 80 -9 80 -4
0 -11 -29 -15 -64z"/>
<path d="M1390 580 c0 -47 4 -80 10 -80 6 0 10 18 10 40 0 22 3 40 8 40 4 0
15 -18 25 -40 26 -61 37 -49 37 40 0 47 -4 80 -10 80 -5 0 -10 -16 -10 -35 0
-19 -4 -35 -8 -35 -5 0 -16 16 -25 35 -26 56 -37 43 -37 -45z"/>
<path d="M1510 580 c0 -47 4 -80 10 -80 6 0 10 33 10 80 0 47 -4 80 -10 80 -6
0 -10 -33 -10 -80z"/>
<path d="M1577 653 c-4 -3 -7 -19 -7 -34 0 -20 8 -33 30 -46 34 -20 40 -43 10
-43 -11 0 -20 5 -20 10 0 6 -7 10 -15 10 -18 0 -20 -21 -3 -38 15 -15 51 -15
66 0 7 7 12 24 12 39 0 20 -7 30 -30 39 -30 12 -39 33 -20 45 5 3 18 0 29 -7
25 -15 39 -4 21 17 -13 15 -61 21 -73 8z"/>
<path d="M1680 650 c0 -5 9 -10 20 -10 18 0 20 -7 20 -70 0 -40 4 -70 10 -70
6 0 10 29 10 66 0 57 3 67 20 71 37 10 20 23 -30 23 -27 0 -50 -4 -50 -10z"/>
<path d="M1812 584 c2 -51 7 -79 16 -82 8 -2 12 7 12 27 0 39 14 40 30 1 7
-16 19 -30 27 -30 9 0 11 5 6 13 -4 6 -8 41 -8 77 l0 65 -43 3 -43 3 3 -77z
m63 26 c0 -16 -6 -26 -17 -28 -14 -3 -18 3 -18 28 0 25 4 31 18 28 11 -2 17
-12 17 -28z"/>
<path d="M1957 653 c-6 -9 -27 -120 -27 -140 0 -20 17 -15 23 7 3 11 10 20 17
20 7 0 14 -9 17 -20 6 -24 23 -27 23 -4 0 46 -25 144 -36 144 -7 0 -15 -3 -17
-7z m19 -90 c-11 -11 -19 6 -11 24 8 17 8 17 12 0 3 -10 2 -21 -1 -24z"/>
<path d="M2030 650 c0 -5 9 -10 20 -10 18 0 20 -7 20 -71 0 -52 3 -70 13 -67
7 3 13 29 15 71 2 51 6 67 17 67 8 0 15 5 15 10 0 6 -22 10 -50 10 -27 0 -50
-4 -50 -10z"/>
<path d="M2160 580 c0 -61 3 -81 13 -77 8 2 12 27 12 77 0 50 -4 75 -12 78
-10 3 -13 -17 -13 -78z"/>
<path d="M2210 655 c0 -3 7 -36 16 -73 17 -67 28 -91 40 -80 4 5 43 141 44
156 0 1 -6 2 -14 2 -8 0 -17 -16 -21 -37 -11 -58 -18 -62 -30 -14 -6 25 -16
46 -23 49 -7 2 -12 1 -12 -3z"/>
<path d="M2342 596 c-7 -35 -12 -71 -12 -80 0 -23 17 -20 23 4 3 11 10 20 17
20 7 0 14 -9 17 -20 6 -23 23 -27 23 -5 0 9 -6 45 -12 80 -9 48 -17 65 -29 65
-11 0 -19 -17 -27 -64z m38 -16 c0 -11 -4 -20 -10 -20 -5 0 -10 9 -10 20 0 11
5 20 10 20 6 0 10 -9 10 -20z"/>
<path d="M2447 653 c-4 -3 -7 -19 -7 -34 0 -20 8 -33 30 -46 17 -9 30 -23 30
-30 0 -17 -37 -17 -43 0 -4 9 -7 9 -17 0 -18 -16 4 -43 34 -43 29 0 46 18 46
51 0 20 -7 30 -30 39 -30 12 -39 33 -20 45 5 3 18 0 29 -7 25 -15 39 -4 21 17
-13 15 -61 21 -73 8z"/>
<path d="M2622 648 c-23 -23 -14 -55 24 -77 19 -12 32 -26 29 -31 -8 -13 -35
-13 -35 0 0 6 -7 10 -15 10 -8 0 -15 -6 -15 -13 0 -19 21 -37 45 -37 52 0 62
61 15 88 -16 9 -30 25 -30 35 0 20 20 23 38 5 15 -15 26 -4 19 17 -8 18 -58
20 -75 3z"/>
<path d="M2746 643 c-10 -36 -26 -137 -22 -141 8 -7 26 9 26 24 0 8 7 14 15
14 8 0 15 -6 15 -14 0 -15 18 -31 26 -23 4 3 -3 45 -22 135 -5 26 -30 29 -38
5z m20 -80 c-11 -11 -17 4 -9 23 7 18 8 18 11 1 2 -10 1 -21 -2 -24z"/>
<path d="M2837 653 c-4 -3 -7 -19 -7 -34 0 -21 7 -32 30 -44 34 -18 40 -45 10
-45 -11 0 -20 5 -20 10 0 6 -4 10 -10 10 -5 0 -10 -9 -10 -20 0 -13 9 -22 27
-26 33 -9 57 6 61 38 2 20 -5 30 -32 46 -20 12 -36 26 -36 32 0 15 33 26 38
12 4 -13 32 -17 32 -4 0 25 -64 44 -83 25z"/>
</g>
</svg>
